<svg width="12" height="12" fill="none" xmlns="http://www.w3.org/2000/svg"><path d="M5.92 0a6 6 0 1 0 .162 12A6 6 0 0 0 5.92 0Zm.665 2c.61 0 .79.354.79.758 0 .506-.405.974-1.095.974-.578 0-.853-.291-.837-.771 0-.405.34-.961 1.142-.961ZM5.02 9.75c-.416 0-.722-.253-.43-1.365l.478-1.973c.083-.316.097-.443 0-.443-.125 0-.666.219-.986.434l-.208-.342c1.014-.846 2.18-1.343 2.68-1.343.416 0 .486.493.277 1.251l-.547 2.074c-.097.367-.056.493.041.493.126 0 .535-.152.938-.468l.236.316C6.514 9.37 5.438 9.75 5.021 9.75Z" fill="#D4E2E8"/></svg>