<svg width="76" height="126" fill="none" xmlns="http://www.w3.org/2000/svg"><path fill-rule="evenodd" clip-rule="evenodd" d="M23 44h12v79H23V44ZM59 32h12v91H59V32Z" fill="#AD2312"/><path d="M74.523 121.199H54.331V68.401c0-1.326-.664-2.401-1.484-2.401H40.969c-.82 0-1.484 1.075-1.484 2.4V121.2H18.699V83.765c0-1.326-.665-2.4-1.485-2.4H5.338c-.82 0-1.485 1.074-1.485 2.4V121.2H1.477c-1.97.126-1.969 4.675 0 4.801h73.046c1.97-.127 1.969-4.676 0-4.801ZM42.454 70.801h8.908V121.2h-8.908V70.801ZM6.822 86.166h8.908v35.033H6.822V86.166ZM74.516 0h-5.938c-1.97.084-1.968 3.097 0 3.18h2.354L45 30.957l-16.412-17.58a1.424 1.424 0 0 0-2.1 0L.435 41.285c-.58.62-.58 1.627 0 2.248.58.621 1.52.621 2.099 0L27.539 16.75 43.95 34.33c.58.62 1.52.62 2.1 0L73.03 5.43V7.95c.079 2.11 2.891 2.108 2.969 0V1.59C76 .712 75.335 0 74.516 0Z" fill="#F12D15"/></svg>