<svg width="76" height="84" fill="none" xmlns="http://www.w3.org/2000/svg"><path fill-rule="evenodd" clip-rule="evenodd" d="M23 35.149h12v47.064H23V35.149ZM59 28h12v54.213H59V28Z" fill="#AD2312"/><path d="M74.523 81.12H54.331V49.44c0-.795-.664-1.44-1.484-1.44H40.969c-.82 0-1.484.645-1.484 1.44v31.68H18.699V58.658c0-.795-.665-1.44-1.485-1.44H5.338c-.82 0-1.485.645-1.485 1.44v22.46H1.477c-1.97.076-1.969 2.805 0 2.881h73.046c1.97-.076 1.969-2.805 0-2.88ZM42.454 50.88h8.908v30.24h-8.908V50.88ZM6.822 60.1h8.908v21.02H6.822V60.1ZM74.516 0h-5.938c-1.97.07-1.968 2.556 0 2.625h2.354L45 25.552 28.589 11.04c-.553-.509-1.547-.509-2.1 0L.435 34.077c-.58.512-.58 1.343 0 1.856.58.513 1.52.513 2.099 0l25.005-22.108 16.412 14.51c.58.513 1.52.513 2.1 0L73.03 4.482v2.08c.079 1.742 2.891 1.74 2.969 0V1.313C76 .588 75.335 0 74.516 0Z" fill="#F12D15"/></svg>