<svg width="64" height="101" fill="none" xmlns="http://www.w3.org/2000/svg"><path d="M24.998 8.096h1.505v9.007c0 .495.446.897.996.897H31.5c.55 0 .997-.402.997-.897V8.096h1.504c.787 0 1.264-.786.838-1.382L30.338.412c-.39-.547-1.283-.55-1.676 0l-4.503 6.302c-.425.596.051 1.382.839 1.382ZM29.5 2.555l2.677 3.747h-.676c-.55 0-.996.402-.996.897v9.007h-2.01V7.2c0-.495-.446-.897-.996-.897h-.676L29.5 2.555ZM5.998 13.996h1.505v8.008c0 .55.446.996.996.996h4.002c.55 0 .996-.446.996-.996v-8.008h1.505a.997.997 0 0 0 .838-1.535l-4.502-7.004a.997.997 0 0 0-1.676 0l-4.503 7.004a.997.997 0 0 0 .839 1.535ZM10.5 7.839l2.677 4.164h-.676a.996.996 0 0 0-.996.996v8.008h-2.01V13a.996.996 0 0 0-.996-.996h-.676L10.5 7.839ZM39.998 15.996h1.505v8.008c0 .55.446.996.996.996H46.5c.55 0 .996-.446.996-.996v-8.008h1.505a.997.997 0 0 0 .838-1.535l-4.502-7.004a.997.997 0 0 0-1.676 0l-4.503 7.004a.997.997 0 0 0 .839 1.535ZM44.5 9.839l2.677 4.164H46.5a.996.996 0 0 0-.997.996v8.008h-2.009V15a.996.996 0 0 0-.996-.996h-.676L44.5 9.839Z" fill="#F12D15"/><path d="M31.566 69.605c8.955-1.202 15.24-9.436 14.039-18.39-1.202-8.956-9.436-15.24-18.39-14.039-8.956 1.202-15.24 9.436-14.039 18.39 1.202 8.956 9.436 15.24 18.39 14.039Z" fill="#AD2312"/><path d="M31.298 51.86c-1.27-.45-2.672-.99-3.454-1.604-.227-.178-.323-.595-.24-1.037.042-.223.239-.97.998-1.2 1.37-.411 2.436.34 2.562.434a1.484 1.484 0 0 0 1.97-2.218c-.379-.361-1.239-.864-2.26-1.121v-.636a1.484 1.484 0 0 0-2.97 0v.655c-3.503.951-4.35 5.531-1.892 7.459.903.708 2.148 1.307 4.296 2.066 1.372.485 1.342 1.593 1.266 2.046-.156.928-.937 1.931-2.282 1.94-1.364.011-1.755-.053-2.79-.73a1.484 1.484 0 1 0-1.626 2.484c1.15.752 1.994 1.053 3.029 1.161v.772a1.484 1.484 0 0 0 2.968 0v-.956c2.033-.63 3.333-2.416 3.63-4.179.398-2.373-.89-4.518-3.205-5.337Z" fill="#fff"/><path d="m63.795 77.915-6.638-11.32c.962-3.337 1.418-9.446 1.449-12.2.181-16.35-13.392-29.689-29.893-29.39-16.708.3-30.229 14.45-28.576 31.604.456 4.736 1.45 7.1 3.889 17.027A72.86 72.86 0 0 1 6.02 90.557v8.959c0 .819.67 1.483 1.497 1.484l35.501-.01c1.106 0 2.005-.89 2.005-1.985v-8.429h3.42c3.084 0 5.594-2.668 5.594-5.947v-4.48l8.462-.005c1.153 0 1.875-1.24 1.295-2.23Zm-10.75-.735a1.998 1.998 0 0 0-2.005 1.986v5.463c0 1.642-1.165 2.979-2.596 2.979H44.03c-1.105 0-2.005.89-2.005 1.985v8.429l-33.007.01v-7.475c0-5.924-.7-11.852-2.08-17.617-2.084-8.753-3.346-11.714-3.818-16.614C1.631 40.86 13.842 28.24 28.767 27.973c14.727-.263 27.005 11.64 26.84 26.388-.036 3.331-.623 9.479-1.493 11.923a1.47 1.47 0 0 0 .156 1.299l5.626 9.593-6.852.004Z" fill="#F12D15"/></svg>