<svg width="76" height="140" fill="none" xmlns="http://www.w3.org/2000/svg"><path d="M31.486 13.401h2.242v14.91c0 .82.664 1.485 1.484 1.485h5.962c.82 0 1.484-.665 1.484-1.484v-14.91H44.9c1.173 0 1.883-1.301 1.249-2.288L39.442.681a1.485 1.485 0 0 0-2.498 0l-6.707 10.433c-.633.986.076 2.287 1.25 2.287Zm6.707-9.172 3.988 6.204h-1.007c-.82 0-1.484.664-1.484 1.484v14.91h-2.993v-14.91c0-.82-.665-1.484-1.485-1.484h-1.007l3.988-6.204ZM10.486 39.401h2.242v11.93c0 .82.665 1.484 1.484 1.484h5.962c.82 0 1.484-.665 1.484-1.484V39.4H23.9c1.173 0 1.883-1.3 1.249-2.287l-6.707-10.433a1.485 1.485 0 0 0-2.497 0L9.238 37.114c-.635.986.075 2.287 1.248 2.287Zm6.707-9.172 3.988 6.203h-1.007c-.82 0-1.484.665-1.484 1.485v11.93h-2.993v-11.93c0-.82-.665-1.485-1.485-1.485h-1.007l3.988-6.203ZM52.486 25.401h2.242v11.93c0 .82.665 1.484 1.484 1.484h5.962c.82 0 1.484-.665 1.484-1.484V25.4H65.9c1.173 0 1.883-1.3 1.249-2.287l-6.707-10.433a1.485 1.485 0 0 0-2.498 0l-6.707 10.433c-.634.987.076 2.287 1.25 2.287Zm6.707-9.172 3.988 6.203h-1.007c-.82 0-1.484.665-1.484 1.485v11.93h-2.993v-11.93c0-.82-.665-1.485-1.485-1.485h-1.007l3.988-6.203Z" fill="#F12D15"/><path d="M37.566 100.605c8.955-1.202 15.24-9.436 14.039-18.39-1.202-8.956-9.436-15.24-18.39-14.039-8.956 1.202-15.24 9.436-14.039 18.39 1.202 8.956 9.436 15.241 18.39 14.039Z" fill="#AD2312"/><path d="M37.298 82.86c-1.27-.45-2.672-.99-3.454-1.604-.227-.178-.323-.595-.24-1.037.042-.223.239-.97.998-1.2 1.37-.411 2.436.34 2.562.434a1.484 1.484 0 0 0 1.97-2.218c-.379-.361-1.239-.864-2.26-1.121v-.636a1.484 1.484 0 0 0-2.97 0v.655c-3.503.951-4.35 5.531-1.892 7.459.903.708 2.148 1.307 4.296 2.066 1.372.485 1.342 1.593 1.266 2.046-.156.928-.936 1.931-2.282 1.94-1.364.011-1.755-.053-2.79-.73a1.484 1.484 0 1 0-1.626 2.484c1.149.752 1.994 1.053 3.029 1.161v.772a1.484 1.484 0 0 0 2.968 0v-.956c2.033-.63 3.333-2.416 3.63-4.179.398-2.373-.89-4.518-3.205-5.337Z" fill="#fff"/><path d="m69.796 113.573-6.639-12.957c.962-3.82 1.418-10.814 1.449-13.967.181-18.715-13.392-33.985-29.893-33.643-16.708.342-30.229 16.54-28.576 36.178.456 5.421 1.45 8.127 3.889 19.492a94.929 94.929 0 0 1 1.995 19.37v10.255c0 .938.67 1.698 1.497 1.699l35.501-.011c1.106 0 2.005-1.02 2.005-2.273v-9.648h3.42c3.084 0 5.594-3.055 5.594-6.809v-5.129l8.462-.004c1.153-.001 1.875-1.421 1.296-2.553Zm-10.752-.841c-1.105.001-2.004 1.021-2.004 2.273v6.254c0 1.881-1.165 3.41-2.596 3.41H50.03c-1.105 0-2.005 1.02-2.005 2.273v9.649l-33.007.011v-8.556c0-6.782-.7-13.567-2.08-20.167-2.084-10.02-3.346-13.41-3.818-19.019-1.49-17.706 10.721-32.15 25.646-32.457 14.727-.3 27.005 13.325 26.84 30.208-.036 3.813-.623 10.85-1.493 13.648a1.893 1.893 0 0 0 .156 1.487l5.626 10.982-6.852.004Z" fill="#F12D15"/></svg>