<svg width="106" height="64" fill="none" xmlns="http://www.w3.org/2000/svg"><path d="m101.761 40.138-.238-.152c.49-1.695.815-3.433.972-5.193l.293-.06c2.192-.447 3.592-2.555 3.121-4.699l-1.878-8.539a3.998 3.998 0 0 0-1.778-2.524 4.155 4.155 0 0 0-3.077-.568l-.275.056a28.353 28.353 0 0 0-3.072-4.363l.16-.24c1.219-1.835.671-4.308-1.219-5.512L87.274 3.57c-1.89-1.204-4.42-.69-5.638 1.144l-.16.24a29.522 29.522 0 0 0-5.318-.98l-.06-.269a3.998 3.998 0 0 0-1.778-2.523 4.153 4.153 0 0 0-3.077-.569l-8.732 1.782c-2.192.447-3.592 2.555-3.12 4.699l.063.287c-1.58.854-3.07 1.85-4.454 2.976l-.238-.152c-1.89-1.204-4.42-.691-5.638 1.143l-3.396 5.114-.042-.05c1.1-1.663.604-3.9-1.108-4.99l-6.17-3.93c-1.713-1.09-4.002-.628-5.108 1.031a24.649 24.649 0 0 0-3.948-.728 3.624 3.624 0 0 0-1.609-2.27 3.764 3.764 0 0 0-2.788-.515l-7.188 1.467c-1.987.406-3.255 2.316-2.83 4.258a23.858 23.858 0 0 0-3.307 2.21c-1.712-1.08-3.995-.613-5.097 1.045L2.54 20.003c-1.101 1.659-.611 3.892 1.092 4.986a22.925 22.925 0 0 0-.722 3.857c-1.986.407-3.254 2.317-2.827 4.26l1.545 7.029c.208.945.78 1.757 1.612 2.287.827.527 1.81.71 2.771.52a23.654 23.654 0 0 0 2.28 3.239c-1.1 1.662-.603 3.9 1.11 4.99l6.17 3.93c1.711 1.09 4 .627 5.107-1.032 1.293.35 2.613.593 3.948.728a3.625 3.625 0 0 0 1.608 2.27c.832.53 1.822.712 2.789.515l7.188-1.467c1.987-.405 3.256-2.315 2.829-4.258a23.884 23.884 0 0 0 3.307-2.21c1.713 1.08 3.996.614 5.097-1.045l1.372-2.066a33.419 33.419 0 0 0 2.615 3.66l-.167.25c-1.218 1.835-.671 4.308 1.22 5.512l7.495 4.774c1.89 1.204 4.42.69 5.638-1.144l.16-.24c1.738.488 3.517.816 5.319.98l.059.269a3.998 3.998 0 0 0 1.778 2.523c.918.585 2.01.787 3.077.569l8.732-1.782c2.192-.447 3.592-2.555 3.12-4.7l-.062-.286c1.579-.854 3.069-1.85 4.453-2.976l.238.152c1.89 1.204 4.42.69 5.638-1.144l4.851-7.304c1.219-1.835.672-4.307-1.219-5.511Zm-57.464 6.294-1.086-.692a1.952 1.952 0 0 0-2.35.189 20.078 20.078 0 0 1-4.852 3.242 1.846 1.846 0 0 0-1.025 2.064l.274 1.242-6.913 1.41-.272-1.235c-.185-.842-.932-1.457-1.812-1.492a20.71 20.71 0 0 1-5.797-1.068 1.932 1.932 0 0 0-2.227.743l-.703 1.059-5.937-3.781.703-1.059a1.841 1.841 0 0 0-.21-2.294 19.894 19.894 0 0 1-3.348-4.757 1.947 1.947 0 0 0-2.126-1.017l-1.265.258-1.486-6.76 1.27-.26a1.868 1.868 0 0 0 1.511-1.754 19.275 19.275 0 0 1 1.06-5.658 1.861 1.861 0 0 0-.778-2.18l-1.086-.692 3.839-5.78 1.086.692c.739.47 1.707.393 2.35-.188a20.069 20.069 0 0 1 4.852-3.242 1.846 1.846 0 0 0 1.024-2.065l-.273-1.242 6.913-1.41.271 1.236a1.925 1.925 0 0 0 1.813 1.491c1.978.079 3.928.438 5.798 1.068.832.28 1.75-.025 2.226-.742l.703-1.06 5.937 3.781-.703 1.06a1.841 1.841 0 0 0 .21 2.293 19.908 19.908 0 0 1 3.348 4.757 1.947 1.947 0 0 0 2.126 1.018l1.265-.258 1.486 6.76-1.27.259a1.869 1.869 0 0 0-1.512 1.754 19.28 19.28 0 0 1-1.058 5.658c-.283.811.038 1.71.777 2.18l1.086.692-3.839 5.78Zm50.608 4.467a.244.244 0 0 1-.334.065l-1.461-.93a1.952 1.952 0 0 0-2.35.188 24.792 24.792 0 0 1-5.993 4.005 1.846 1.846 0 0 0-1.025 2.064l.369 1.676a.23.23 0 0 1-.182.273l-8.731 1.782a.249.249 0 0 1-.292-.185l-.365-1.662c-.185-.842-.932-1.457-1.812-1.492a25.582 25.582 0 0 1-7.162-1.32 1.932 1.932 0 0 0-2.226.743l-.949 1.428a.244.244 0 0 1-.333.065l-7.496-4.774a.233.233 0 0 1-.075-.325l.949-1.427a1.841 1.841 0 0 0-.21-2.295c-1.361-1.433-2.904-3.628-4.07-5.767l.28-.422c1.102-1.659.612-3.892-1.091-4.986.35-1.263.592-2.553.721-3.858 1.987-.406 3.255-2.316 2.828-4.259l-1.546-7.03a3.624 3.624 0 0 0-1.612-2.286 3.761 3.761 0 0 0-2.51-.562l4.121-6.206a.244.244 0 0 1 .334-.065l1.461.93c.74.472 1.708.394 2.35-.188a24.798 24.798 0 0 1 5.993-4.004 1.846 1.846 0 0 0 1.025-2.065l-.369-1.676a.23.23 0 0 1 .181-.273l8.732-1.782a.249.249 0 0 1 .292.185l.365 1.662c.185.842.932 1.457 1.812 1.492 2.444.097 4.853.54 7.162 1.319.832.28 1.75-.025 2.226-.743l.949-1.427a.244.244 0 0 1 .333-.065l7.496 4.774a.233.233 0 0 1 .075.324l-.948 1.428a1.841 1.841 0 0 0 .21 2.295 24.575 24.575 0 0 1 4.135 5.875 1.948 1.948 0 0 0 2.127 1.018l1.7-.347a.25.25 0 0 1 .291.185l1.877 8.54a.23.23 0 0 1-.181.272l-1.714.35a1.868 1.868 0 0 0-1.511 1.754 23.81 23.81 0 0 1-1.308 6.989 1.86 1.86 0 0 0 .777 2.18l1.461.93a.233.233 0 0 1 .075.326l-4.851 7.304Z" fill="#F12D15"/><path d="M74.395 14.948c-9.464 0-17.163 7.588-17.163 16.915 0 9.327 7.699 16.915 17.163 16.915s17.163-7.588 17.163-16.915c0-9.327-7.7-16.915-17.163-16.915Zm0 30.069c-7.357 0-13.342-5.901-13.342-13.154s5.985-13.154 13.342-13.154c7.356 0 13.342 5.901 13.342 13.154s-5.985 13.154-13.342 13.154Z" fill="#F12D15"/><path d="M27.078 43.78c6.934 0 12.556-5.54 12.556-12.376 0-6.835-5.622-12.375-12.556-12.375-6.934 0-12.556 5.54-12.556 12.375S20.144 43.78 27.078 43.78Z" fill="#AD2312"/></svg>