<svg width="192" height="196" fill="none" xmlns="http://www.w3.org/2000/svg"><path d="m105.353 40.039-.18.283a33.44 33.44 0 0 0-6.25-1.155l-.076-.349c-.556-2.605-3.103-4.27-5.675-3.71L82.923 37.34a4.759 4.759 0 0 0-3.017 2.114 4.874 4.874 0 0 0-.657 3.658l.07.326a33.737 33.737 0 0 0-5.218 3.651l-.29-.19c-2.217-1.448-5.184-.797-6.614 1.45l-5.673 8.91c-1.43 2.248-.792 5.254 1.424 6.702l.29.19a34.605 34.605 0 0 0-1.13 6.322l-.323.07a4.758 4.758 0 0 0-3.018 2.114 4.873 4.873 0 0 0-.657 3.658l2.22 10.38c.556 2.605 3.102 4.269 5.675 3.709l.345-.075a34.32 34.32 0 0 0 3.616 5.293l-.18.283c-1.431 2.248-.792 5.254 1.424 6.702l6.176 4.037-.06.05c-2.008-1.307-4.693-.717-5.988 1.317l-4.67 7.335c-1.296 2.035-.72 4.756 1.284 6.071a28.884 28.884 0 0 0-.84 4.694 4.31 4.31 0 0 0-2.714 1.911 4.417 4.417 0 0 0-.595 3.315l1.827 8.544c.505 2.361 2.812 3.87 5.143 3.363a28.67 28.67 0 0 0 2.686 3.932c-1.284 2.035-.702 4.749 1.3 6.058l7.264 4.747c2.003 1.309 4.684.726 5.984-1.298 1.52.416 3.073.703 4.643.858.505 2.361 2.813 3.868 5.144 3.361l8.437-1.838a4.313 4.313 0 0 0 2.735-1.916 4.415 4.415 0 0 0 .599-3.293 28.102 28.102 0 0 0 3.875-2.711c2.008 1.307 4.692.717 5.988-1.318l4.67-7.334c1.295-2.035.719-4.757-1.285-6.071.409-1.537.689-3.106.84-4.694a4.313 4.313 0 0 0 2.714-1.911c.63-.989.841-2.166.595-3.315l-1.826-8.544c-.505-2.362-2.812-3.87-5.144-3.363a28.691 28.691 0 0 0-2.685-3.932c1.283-2.035.702-4.749-1.301-6.058l-2.496-1.631c1.457-.9 2.989-1.961 4.376-3.108l.304.199c2.216 1.448 5.183.798 6.613-1.45l5.673-8.91c1.431-2.247.792-5.254-1.424-6.702l-.29-.19c.571-2.065.95-4.18 1.131-6.322l.323-.07a4.762 4.762 0 0 0 3.018-2.114c.694-1.09.927-2.39.656-3.658l-2.219-10.38c-.557-2.605-3.103-4.269-5.676-3.708l-.345.075a34.24 34.24 0 0 0-3.616-5.294l.18-.283c1.431-2.248.792-5.254-1.424-6.702l-8.823-5.767c-2.216-1.448-5.183-.797-6.614 1.45Zm8.071 68.306-.821 1.291c-.56.878-.458 2.03.247 2.793a24.114 24.114 0 0 1 3.94 5.768 2.243 2.243 0 0 0 2.49 1.218l1.491-.325 1.757 8.217-1.484.323a2.274 2.274 0 0 0-1.777 2.154 24.273 24.273 0 0 1-1.233 6.891c-.33.99.046 2.081.913 2.648l1.279.835-4.493 7.057-1.279-.836a2.227 2.227 0 0 0-2.756.249 23.697 23.697 0 0 1-5.688 3.98 2.289 2.289 0 0 0-1.205 2.528l.321 1.503-8.112 1.767-.323-1.51a2.26 2.26 0 0 0-2.122-1.796 23.538 23.538 0 0 1-6.81-1.259 2.235 2.235 0 0 0-2.615.924l-.821 1.29-6.982-4.562.822-1.291c.56-.879.457-2.03-.247-2.794a24.083 24.083 0 0 1-3.94-5.767 2.242 2.242 0 0 0-2.49-1.218l-1.492.325-1.756-8.217 1.484-.323a2.273 2.273 0 0 0 1.776-2.154 24.29 24.29 0 0 1 1.233-6.892c.33-.99-.045-2.08-.912-2.647l-1.279-.835 4.493-7.057 1.278.836a2.229 2.229 0 0 0 2.756-.249 23.64 23.64 0 0 1 5.69-3.98 2.29 2.29 0 0 0 1.203-2.529l-.32-1.502 8.112-1.767.323 1.51a2.26 2.26 0 0 0 2.122 1.796c2.322.082 4.614.505 6.81 1.259a2.236 2.236 0 0 0 2.614-.924l.822-1.291 6.981 4.563Zm4.926-60.156a.29.29 0 0 1 .081.396l-1.106 1.737c-.56.879-.458 2.03.247 2.794a29.763 29.763 0 0 1 4.867 7.123 2.242 2.242 0 0 0 2.49 1.218l2.012-.438a.278.278 0 0 1 .329.216l2.219 10.38a.292.292 0 0 1-.22.346l-1.995.434a2.274 2.274 0 0 0-1.777 2.154 29.963 29.963 0 0 1-1.523 8.512c-.33.99.046 2.081.913 2.648l1.724 1.127c.13.084.166.262.081.396l-5.672 8.91a.281.281 0 0 1-.39.089l-1.725-1.127a2.228 2.228 0 0 0-2.756.25c-1.71 1.617-4.336 3.451-6.897 4.837l-.51-.334c-2.003-1.309-4.683-.726-5.984 1.298a27.933 27.933 0 0 0-4.643-.858c-.505-2.36-2.813-3.868-5.144-3.36l-8.437 1.837a4.313 4.313 0 0 0-2.735 1.916 4.41 4.41 0 0 0-.653 2.984l-7.496-4.9a.289.289 0 0 1-.081-.396l1.106-1.737c.559-.878.457-2.03-.248-2.793a29.762 29.762 0 0 1-4.866-7.124 2.242 2.242 0 0 0-2.49-1.218l-2.013.438a.278.278 0 0 1-.33-.215l-2.218-10.38a.293.293 0 0 1 .22-.346l1.995-.434a2.272 2.272 0 0 0 1.776-2.154 29.992 29.992 0 0 1 1.523-8.513c.33-.99-.046-2.08-.912-2.647l-1.725-1.127a.289.289 0 0 1-.08-.396l5.672-8.91a.28.28 0 0 1 .39-.09l1.724 1.128a2.229 2.229 0 0 0 2.757-.25 29.239 29.239 0 0 1 7.026-4.916 2.29 2.29 0 0 0 1.204-2.528l-.432-2.02a.293.293 0 0 1 .22-.346l10.249-2.232a.278.278 0 0 1 .33.215l.435 2.038a2.26 2.26 0 0 0 2.123 1.796c2.87.101 5.699.624 8.412 1.555a2.236 2.236 0 0 0 2.614-.924l1.105-1.737a.281.281 0 0 1 .39-.089l8.824 5.767Z" fill="#F12D15"/><path d="M79.093 62.295c-6.084 9.431-3.35 22.06 6.095 28.151 9.444 6.092 22.076 3.376 28.16-6.055 6.083-9.43 3.349-22.06-6.096-28.151-9.444-6.092-22.076-3.376-28.16 6.055Zm30.446 19.64c-4.729 7.33-14.55 9.44-21.895 4.703-7.344-4.737-9.472-14.556-4.743-21.886 4.729-7.331 14.55-9.441 21.895-4.704 7.344 4.737 9.472 14.555 4.743 21.886Z" fill="#F12D15"/><path d="M108.13 136.502c4.458-6.91 2.461-16.131-4.46-20.595-6.921-4.464-16.145-2.482-20.603 4.429-4.457 6.91-2.46 16.131 4.461 20.595 6.921 4.464 16.145 2.481 20.602-4.429Z" fill="#AD2312"/></svg>